<svg xmlns="http://www.w3.org/2000/svg" viewBox="0 0 100 100">
  <rect x="15" y="15" width="70" height="70" fill="#3B82F6" stroke="#1E3A8A" stroke-width="2" rx="5"/>
  <rect x="22" y="22" width="56" height="15" fill="#1E3A8A" rx="2"/>
  <rect x="22" y="42" width="12" height="12" fill="#10B981" rx="2"/>
  <rect x="38" y="42" width="12" height="12" fill="#10B981" rx="2"/>
  <rect x="54" y="42" width="12" height="12" fill="#10B981" rx="2"/>
  <rect x="70" y="42" width="8" height="12" fill="#F59E0B" rx="2"/>
  <rect x="22" y="58" width="12" height="12" fill="#10B981" rx="2"/>
  <rect x="38" y="58" width="12" height="12" fill="#10B981" rx="2"/>
  <rect x="54" y="58" width="12" height="12" fill="#10B981" rx="2"/>
  <rect x="70" y="58" width="8" height="12" fill="#F59E0B" rx="2"/>
  <rect x="22" y="74" width="28" height="8" fill="#EF4444" rx="2"/>
  <rect x="54" y="74" width="24" height="8" fill="#10B981" rx="2"/>
</svg>