<svg xmlns="http://www.w3.org/2000/svg" viewBox="0 0 200 100">
  <!-- World Map Background -->
  <ellipse cx="100" cy="50" rx="90" ry="45" fill="#E5E7EB" stroke="#9CA3AF" stroke-width="1"/>
  
  <!-- Continents (simplified) -->
  <!-- North America -->
  <path d="M30 25 Q50 20 60 35 Q55 45 40 40 Q30 35 30 25" fill="#10B981" opacity="0.8"/>
  
  <!-- South America -->
  <path d="M45 50 Q55 48 58 60 Q55 75 48 70 Q42 60 45 50" fill="#10B981" opacity="0.8"/>
  
  <!-- Europe -->
  <path d="M85 25 Q100 22 105 30 Q100 38 90 35 Q85 30 85 25" fill="#10B981" opacity="0.8"/>
  
  <!-- Africa -->
  <path d="M88 40 Q105 38 108 55 Q105 72 95 68 Q88 55 88 40" fill="#10B981" opacity="0.8"/>
  
  <!-- Asia -->
  <path d="M110 20 Q150 15 160 35 Q155 50 130 48 Q110 40 110 20" fill="#10B981" opacity="0.8"/>
  
  <!-- Australia -->
  <path d="M145 60 Q165 58 168 70 Q165 80 150 78 Q145 70 145 60" fill="#10B981" opacity="0.8"/>
  
  <!-- Office Location Markers -->
  <!-- Hong Kong -->
  <circle cx="142" cy="42" r="4" fill="#EF4444" stroke="white" stroke-width="1"/>
  <!-- USA -->
  <circle cx="45" cy="32" r="4" fill="#EF4444" stroke="white" stroke-width="1"/>
  <!-- Germany -->
  <circle cx="92" cy="28" r="4" fill="#EF4444" stroke="white" stroke-width="1"/>
  <!-- India -->
  <circle cx="130" cy="45" r="4" fill="#EF4444" stroke="white" stroke-width="1"/>
  <!-- Japan -->
  <circle cx="155" cy="32" r="4" fill="#EF4444" stroke="white" stroke-width="1"/>
</svg>